[img]http://img197.imageshack.us/img197/8866/ghostom.jpg[/img]
[code]
Ghost Rider Spirit of Vengence 2012 TS V2 XviD-26k
 
http://www.imdb.com/title/tt1071875/

Plot:
As Johnny Blaze hides out in Eastern Europe, he is called upon to stop the devil, who is trying to 

take human form.

Sources - Thanks :P

Format                                   : AVI
Format/Info                              : Audio Video Interleave
File size                                : 1.37 GiB
Duration                                 : 1h 28mn
Overall bit rate                         : 2 229 Kbps
Writing library                          : VirtualDub build 32839/release

Video
ID                                       : 0
Format                                   : MPEG-4 Visual
Format profile                           : Advanced Simple@L5
Format settings, BVOP                    : 2
Format settings, QPel                    : No
Format settings, GMC                     : No warppoints
Format settings, Matrix                  : Default (H.263)
Muxing mode                              : Packed bitstream
Codec ID                                 : XVID
Codec ID/Hint                            : XviD
Duration                                 : 1h 28mn
Bit rate                                 : 2 089 Kbps
Width                                    : 720 pixels
Height                                   : 304 pixels
Display aspect ratio                     : 2.35:1
Frame rate                               : 29.970 fps
Color space                              : YUV
Chroma subsampling                       : 4:2:0
Bit depth                                : 8 bits
Scan type                                : Progressive
Compression mode                         : Lossy
Bits/(Pixel*Frame)                       : 0.318
Stream size                              : 1.29 GiB (94%)
Writing library                          : XviD 1.2.1 (UTC 2008-12-04)

Audio
ID                                       : 1
Format                                   : MPEG Audio
Format version                           : Version 1
Format profile                           : Layer 3
Mode                                     : Joint stereo
Mode extension                           : MS Stereo
Codec ID                                 : 55
Codec ID/Hint                            : MP3
Duration                                 : 1h 28mn
Bit rate mode                            : Constant
Bit rate                                 : 128 Kbps
Channel(s)                               : 2 channels
Sampling rate                            : 44.1 KHz
Compression mode                         : Lossy
Delay relative to video                  : 500ms
Stream size                              : 80.7 MiB (6%)
Alignment                                : Split accross interleaves
Interleave, duration                     : 33 ms (1.00 video frame)
Writing library                          : LAME3.99r
Encoding settings                        : -m j -V 4 -q 2 -lowpass 17 -b 128



Notes -
Cropped , resize, perspectives filter, denoise, RGB, contrast , brightness, levels and sharpened.. 

came out real nice
then just synced and muxed the LiNE to it... enjoy
[/code]
Screens:
[img]http://i.imgur.com/obe2j.png[/img]
[img]http://img10.imageshack.us/img10/5474/40917858.png[/img]
[img]http://img820.imageshack.us/img820/6691/99969198.png[/img]
[img]http://img163.imageshack.us/img163/7919/45136989.png[/img]

Greetz:
Xtreme 

Encode|FYA|ILLUMANTI|CM8|RX|VISI​ON|HDSCENE|xTriLL|DTRG|CRYS|REMIX​HD|BIDA|RX|REFILL|INSPiRAL|SIC|HO​P

E|Anonymous|GooN
To all the people who have helped me  you know who you are

Anything to offer email us @: 26k@hushmail.me

[img]http://img851.imageshack.us/img851/5503/26ks.jpg[/img]
Thank you smallz for banner!